<?xml version="1.0" encoding="UTF-8"?>
<svg id="Layer_1" xmlns="http://www.w3.org/2000/svg" version="1.1" viewBox="0 0 110 135">
  <!-- Generator: Adobe Illustrator 30.2.1, SVG Export Plug-In . SVG Version: 2.1.1 Build 1)  -->
  <defs>
    <style>
      .st0 {
        fill: #4a5acf;
      }

      .st1 {
        fill: #3a4abf;
      }

      .st2 {
        fill: #fff;
      }
    </style>
  </defs>
  <path class="st0" d="M37.48,28.09c1.75.48,2.94,1.02,3.75,2.01.82,1,1.23,2.47,1.41,4.8.17,2.12.79,4.45,1.41,6.83.48,1.81.97,3.65,1.27,5.45.13.82.28,1.62.44,2.37.16.76.33,1.49.5,2.18.52,1.97.79,3.55.93,5.09s.17,3.02.18,4.84c0,.4-.02.85-.06,1.35-.08,1.5-.22,3.6.18,6.4.28,1.93.13,3.6-.4,5.07-.54,1.46-1.46,2.7-2.74,3.76-.52.44-1.02.44-1.4.23-.16-.08-.29-.19-.4-.34-.11-.13-.18-.28-.23-.44-.13-.41-.05-.86.3-1.12.91-.66,1.37-1.41,1.57-2.18.11-.37.15-.77.17-1.16-.22.29-.46.59-.69.86-.24.28-.58.39-.92.36-.19-.01-.37-.06-.54-.16-.17-.1-.31-.24-.41-.41-.15-.27-.19-.6-.05-.99l.02-.04c.16-.31.33-.58.48-.86.53-.88,1.06-1.77,1.15-3.6.02-.63.02-1.26,0-1.9-.02-.63-.08-1.27-.17-1.9-.24-1.98-.65-3.89-1-5.49l-.04-.18c-.06-.25-.12-.52-.19-.81-.04-.16-.08-.33-.16-.63-.21-.86-.39-1.68-.5-2.48-.12-.8-.19-1.6-.18-2.38,0-1.28-.3-2.28-.75-3.41-.06-.16-.13-.31-.19-.48h0c-.04-.08-.07-.18-.11-.28-.41-.99-.87-2.13-1.31-3.64-.25.36-.56.69-.92.97-.17.53-.4,1.25-.46,1.62-.5,3.28.5,5.63,1.55,8.11.34.8.66,1.6.97,2.43,3.17,8.06,1.92,14.28.51,21.37l-.06.33c-.12.59-.3,1.49-.48,2.38-.28,1.37-.56,2.73-.82,4.1-.25,1.39-.52,2.79-.69,4.21-.08.74-.15,1.47-.17,2.22.02.44.02.85,0,1.22,0,.27.02.53.05.8.06.86.15,1.73.24,2.56.17,1.68.33,3.25.25,4.15-.11,2.85-.87,5.43-1.64,8.02-.3,1-.59,2.01-.86,3.02v.06c-.28,1.09-.52,2.19-.65,3.34-.1.79-.12,1.37-.08,1.84.02.45.11.8.22,1.11.25.73.33,1.27.4,1.78.04.3.07.59.16.89v.06s0-.06,0,0c.12.44.46,1.68,1.08,2.3.36.37.54.82.54,1.27,0,.22-.05.44-.12.63-.08.19-.21.39-.36.54-.33.33-.82.54-1.45.54h-4.26c-.4,0-.73-.07-.99-.18-.36-.16-.62-.4-.77-.69-.16-.28-.22-.6-.22-.96,0-.47.13-.98.33-1.43.48-1.14.33-2.32.25-2.78,0-.07-.02-.12-.02-.12-.18-1.51.25-2.47.57-3.14.08-.19.17-.36.21-.5,1.05-3.87.73-6.5.34-9.7-.21-1.7-.44-3.57-.48-5.88-.02-.77.05-1.54.1-2.27.05-.66.1-1.29.08-1.81,0-.44-.05-.86-.11-1.28-.06-.41-.13-.83-.25-1.26-.34-1.26-.51-2.33-.56-3.3-.06-.97,0-1.8.08-2.55.29-2.48.15-3.53-.13-5.69-.02-.23-.06-.47-.11-.82v-.08c-.39-2.95-.85-6.5-.8-10.72-.12.02-.25.02-.37.02-.1,0-.19,0-.29-.01.04,4.22-.42,7.8-.8,10.74v.06c-.06.35-.08.59-.12.82-.28,2.18-.42,3.23-.13,5.69.08.75.13,1.58.08,2.55-.06.97-.22,2.06-.56,3.3-.11.41-.19.83-.25,1.26s-.08.86-.11,1.28c-.02.52.04,1.15.08,1.81.06.73.11,1.49.1,2.27-.05,2.31-.28,4.17-.48,5.88-.39,3.19-.71,5.83.34,9.7.04.15.11.3.21.5.3.68.75,1.62.57,3.14,0,0,0,.05-.02.12-.06.46-.23,1.66.25,2.78.19.45.33.96.33,1.43,0,.34-.06.66-.22.96s-.41.54-.77.69c-.27.11-.59.18-.99.18h-4.26c-.63,0-1.11-.21-1.45-.53-.16-.16-.28-.34-.36-.54-.08-.19-.12-.41-.12-.63,0-.44.17-.89.54-1.27.62-.63.96-1.87,1.08-2.3.02-.08.01-.05,0,0v-.06c.1-.3.13-.58.17-.89.06-.51.13-1.05.4-1.78.12-.33.19-.66.22-1.11.02-.47,0-1.05-.08-1.84-.13-1.15-.36-2.25-.64-3.34v-.06c-.27-1.02-.57-2.02-.87-3.02-.77-2.59-1.54-5.16-1.64-8.02-.06-.91.08-2.48.25-4.15.08-.85.17-1.72.24-2.56.02-.27.04-.53.05-.8-.02-.37-.02-.77,0-1.22-.02-.75-.08-1.49-.17-2.22-.17-1.41-.44-2.82-.69-4.21-.05-.25-.12-.68-.21-1.12-.3-1.64-.65-3.59-1.16-5.59-.54-2.14-.92-4.1-1.16-5.9-.02.13-.06.24-.12.35-.1.17-.24.31-.41.41-.17.1-.35.15-.54.16-.33.02-.68-.08-.92-.36-.24-.27-.47-.56-.69-.86.01.39.06.79.17,1.16.22.76.66,1.5,1.57,2.18.36.27.44.71.3,1.12-.05.16-.13.3-.23.44-.11.13-.24.25-.4.34-.39.21-.88.19-1.4-.23-1.28-1.06-2.21-2.3-2.74-3.76s-.68-3.13-.4-5.07c.4-2.79.28-4.9.18-6.4-.04-.52-.06-.96-.06-1.35.01-1.8.04-3.3.18-4.84s.41-3.12.93-5.09c.18-.69.35-1.41.5-2.18.16-.75.3-1.55.44-2.37.3-1.75.77-3.54,1.26-5.3.66-2.43,1.32-4.82,1.43-6.98.25-5.07,2.3-6.04,5.71-7,1.03-1.75.65-4.1.24-6.56-.29-1.79-.59-3.64-.41-5.44.24-2.37,1.18-4.21,2.53-5.49,1.51-1.44,3.49-2.18,5.5-2.18.52,0,1.04.05,1.55.13s.99.21,1.45.37c.25.08.34.25.44.45.05.08.1.19.21.25.08.04.19.02.3.01.24-.02.47-.05.73.13.96.64,1.75,1.5,2.33,2.59.54,1.02.89,2.22.99,3.63.11,1.44-.12,2.97-.35,4.53-.44,2.9-.87,5.82,1.06,7.79h.02l-.07-.04h0l-.07.02h0ZM17.66,48.73h0c-.06.17-.13.33-.19.48-.45,1.12-.76,2.14-.75,3.41,0,.8-.06,1.58-.18,2.38-.12.79-.29,1.61-.5,2.48-.08.33-.13.57-.18.75-.07.3-.13.52-.17.7-.37,1.47-.79,3.48-1.04,5.42-.19,1.46-.28,2.89-.17,4.01.17,1.9.69,2.78,1.21,3.71.13.24.28.48.44.77v.02c-.34-2.87-.34-5.33-.11-7.56.41-3.76,1.5-6.76,2.76-9.76.66-1.58,1.16-3.11,1.43-4.7.25-1.55.28-3.17.04-4.97-.01,0-.02-.02-.04-.02-.42-.3-.79-.69-1.08-1.12-.44,1.55-.91,2.71-1.33,3.71-.04.1-.07.18-.11.28h-.03,0Z"/>
  <path class="st2" d="M38.39,39.6c-.07-.19.02-.42.22-.5s.42.02.5.22c.53,1.35.64,2.64.44,3.72-.05.25-.12.5-.21.74.47,1.89,1.02,3.23,1.49,4.38.04.1.07.18.11.28h0v.05c.07.13.13.28.18.41.25.63.47,1.16.69,1.61.25.56.48,1,.75,1.45.11.18.05.42-.13.53-.16.1-.36.06-.48-.07v.22c0,.74.06,1.49.17,2.26.12.79.29,1.58.48,2.41.02.12.1.36.16.62.07.28.15.56.21.83l.04.18c.35,1.6.77,3.53,1.02,5.55.07.64.13,1.29.17,1.96.04.65.04,1.32,0,1.96-.1,2.04-.68,3-1.26,3.98-.16.25-.31.52-.45.79-.05.13-.04.24,0,.31.02.05.07.1.13.12.06.04.13.06.19.06.11,0,.22-.02.29-.11.31-.36.65-.77.91-1.16.15-.22.28-.42.36-.58,0-.02.02-.05.02-.06.04-.07.06-.13.07-.18.06-.21.28-.31.48-.25.21.06.31.28.25.48-.02.07-.05.15-.08.23.05.83.07,1.7-.17,2.56-.25.92-.79,1.8-1.86,2.59-.06.05-.06.15-.02.27.02.06.06.13.1.19s.1.1.15.13c.13.07.33.05.56-.15,1.17-.97,2.02-2.09,2.51-3.43.5-1.34.63-2.89.36-4.69-.41-2.87-.28-5.02-.19-6.55.04-.52.06-.96.06-1.32,0-1.78-.04-3.25-.17-4.76-.15-1.5-.41-3.05-.91-4.97-.18-.69-.35-1.44-.51-2.21s-.3-1.58-.45-2.39c-.3-1.77-.77-3.58-1.26-5.38-.64-2.42-1.27-4.79-1.44-6.96s-.53-3.49-1.25-4.38c-.71-.86-1.8-1.33-3.46-1.78-1.16-.31-2.37-.66-3.3-1.38-.19-.15-.36-.3-.53-.48.15.41.35.76.66.98.17.12.22.36.1.54-.12.17-.36.22-.54.1-.74-.52-1.06-1.44-1.18-2.39-.06-.46-.07-.93-.06-1.37l-.02.02c-.8.74-1.77,1.14-2.78,1.21-1,.08-2.04-.16-2.96-.7-.24-.15-.47-.3-.7-.5,0,1.28-.05,2.82-1.21,3.65-.17.12-.41.08-.54-.1s-.08-.41.1-.54c.3-.22.51-.52.64-.88-.05.06-.11.11-.17.16-.65.59-1.5.97-2.42,1.22l-.08.02c-3.68.99-5.9,1.58-6.15,6.56-.11,2.24-.77,4.67-1.45,7.13-.47,1.75-.96,3.52-1.25,5.22-.13.82-.28,1.62-.45,2.39-.16.77-.33,1.51-.51,2.21-.51,1.93-.77,3.47-.91,4.97-.15,1.51-.16,2.97-.17,4.76,0,.35.02.8.06,1.32.1,1.54.22,3.69-.19,6.55-.25,1.8-.13,3.35.36,4.69.48,1.33,1.34,2.47,2.51,3.43.23.19.42.22.56.15.06-.02.11-.07.15-.13.05-.06.08-.12.1-.19.04-.11.04-.23-.02-.27-1.08-.8-1.61-1.68-1.86-2.59-.24-.86-.22-1.73-.17-2.56-.04-.08-.07-.16-.08-.23-.06-.21.05-.42.25-.48s.42.05.48.25c.02.05.05.12.07.18,0,.02.02.04.02.06.08.17.22.36.36.58.25.39.59.8.91,1.16.07.08.18.11.29.11.07,0,.15-.02.19-.06.05-.02.1-.07.13-.12.05-.07.05-.18,0-.31-.13-.24-.27-.48-.4-.71-.57-.99-1.12-1.95-1.31-4.03-.11-1.17-.02-2.66.17-4.18.25-1.98.68-4.01,1.05-5.51.06-.27.13-.52.17-.69.07-.3.13-.56.18-.74.19-.82.36-1.62.48-2.41.12-.77.18-1.52.17-2.26v-.22c-.12.13-.33.17-.48.07-.18-.11-.24-.35-.13-.53.27-.45.5-.91.75-1.45.21-.45.42-.97.69-1.61.05-.13.11-.28.17-.41v-.04h.02c.04-.08.07-.18.11-.28.48-1.17,1.05-2.55,1.52-4.49v-.02c-.06-.19-.12-.4-.16-.6-.22-1.1-.1-2.37.44-3.72.07-.19.3-.3.5-.22s.3.3.22.5c-.47,1.21-.58,2.33-.39,3.3.19.99.7,1.8,1.45,2.33.6.44,1.37.69,2.25.71.83.02,1.78-.16,2.78-.6.19-.08.42,0,.51.21.08.19,0,.42-.19.51-1.11.48-2.16.69-3.12.66-.65-.02-1.26-.15-1.79-.37.18,1.66.13,3.17-.11,4.62-.17,1.02-.42,2.01-.75,2.99.1,0,.19.02.27.08.17.13.19.37.06.54-.35.45-.71.98-1.05,1.6-.31.57-.62,1.2-.88,1.87-.85,2.25-1.52,4.59-1.83,7.35-.4,3.66-.11,8.03,1.34,13.84.51,2.01.86,3.98,1.16,5.65.06.34.12.66.21,1.12.27,1.41.53,2.83.7,4.26.13,1.16.22,2.33.18,3.52.02.27.06.52.11.75.12.53.33.98.59,1.38.12.18.06.42-.11.54-.18.12-.42.06-.54-.11-.07-.12-.15-.24-.22-.36-.04.42-.08.85-.12,1.27-.17,1.64-.31,3.18-.25,4.01h0c.1,2.77.85,5.31,1.61,7.86.3,1.02.6,2.02.86,3.05h0c.24.89.44,1.85.6,2.72.24,1.18.44,2.22.66,2.6.11.18.06.42-.12.53-.13.08-.3.07-.42,0-.05.36-.13.66-.23.96-.24.66-.3,1.16-.36,1.62-.05.34-.08.65-.18.99v.05c0-.06.02-.12-.01,0-.13.48-.51,1.87-1.27,2.65-.22.22-.31.47-.31.71,0,.11.02.22.06.33.05.11.11.21.19.28.19.19.5.33.91.33h4.26c.28,0,.52-.05.69-.12.19-.08.33-.21.4-.35.08-.16.13-.36.13-.58,0-.36-.11-.76-.25-1.12-.57-1.33-.39-2.67-.31-3.19,0-.02,0-.05.01-.11.16-1.31-.23-2.14-.5-2.73-.11-.23-.19-.44-.25-.62-1.09-4.01-.76-6.72-.36-9.99.21-1.7.44-3.55.48-5.8.01-.71-.05-1.47-.1-2.19-.05-.68-.1-1.32-.08-1.9.01-.46.05-.91.11-1.35.06-.46.15-.91.27-1.35.33-1.2.48-2.24.53-3.14s0-1.7-.07-2.42c-.3-2.56-.16-3.65.13-5.89.04-.28.07-.58.11-.82v-.06c.39-2.96.86-6.59.8-10.83-.13-.05-.25-.12-.39-.19-.46-.27-.87-.66-1.18-1.21-.11-.18-.05-.42.13-.53.18-.11.42-.05.53.13.24.41.56.73.91.93.33.19.69.29,1.06.29s.73-.1,1.06-.29c.35-.21.66-.52.91-.93.11-.18.35-.24.53-.13s.24.35.13.53c-.31.54-.73.94-1.18,1.21-.1.06-.19.11-.3.15-.06,4.28.4,7.88.77,10.86v.08c.04.23.08.53.12.82.29,2.24.44,3.32.13,5.89-.08.71-.13,1.51-.07,2.42.05.91.21,1.95.53,3.14.12.45.21.89.27,1.35s.1.91.11,1.35c.02.57-.02,1.21-.08,1.9-.06.71-.11,1.47-.1,2.19.05,2.25.28,4.1.48,5.8.4,3.26.73,5.98-.36,9.99-.05.19-.15.39-.25.62-.27.59-.65,1.43-.5,2.73v.11c.07.52.25,1.86-.31,3.19-.16.36-.25.76-.25,1.12,0,.22.04.41.13.58.08.15.21.27.4.35.17.07.4.12.69.12h4.26c.4,0,.7-.12.91-.31.08-.08.15-.18.19-.28.05-.11.06-.22.06-.33,0-.24-.11-.5-.31-.71-.76-.77-1.14-2.16-1.27-2.65-.02-.08,0-.05,0,0v-.05c-.11-.35-.15-.66-.19-.99-.06-.46-.12-.96-.36-1.62-.11-.29-.18-.59-.23-.96-.12.08-.29.08-.42,0-.18-.11-.24-.35-.12-.53.24-.37.44-1.4.66-2.6.17-.87.36-1.83.6-2.71h0c.25-1.04.56-2.06.86-3.06.75-2.55,1.51-5.08,1.61-7.83h0c.06-.86-.08-2.39-.25-4.04-.05-.42-.08-.85-.12-1.27-.06.12-.13.24-.22.36-.12.18-.36.23-.54.11s-.23-.36-.11-.54c.27-.41.47-.86.59-1.38.05-.23.1-.48.11-.75-.04-1.18.05-2.36.18-3.52.17-1.43.44-2.84.7-4.26.25-1.34.53-2.72.82-4.12.15-.69.28-1.38.48-2.37l.06-.33c1.39-6.98,2.61-13.11-.47-20.95h0c-.02-.08-.05-.15-.07-.22-.28-.68-.57-1.31-.88-1.87-.33-.59-.66-1.12-1.02-1.56-.13-.17-.1-.41.07-.54.06-.05.12-.07.19-.08-.74-1.97-1.25-4.04-.85-6.69.04-.24.13-.58.23-.94-.54.22-1.14.35-1.79.37-.96.02-2.01-.18-3.12-.66-.19-.08-.29-.31-.19-.51.08-.19.31-.29.51-.21,1,.44,1.95.63,2.78.6.87-.02,1.64-.28,2.25-.71.74-.53,1.25-1.34,1.45-2.33.19-.96.08-2.08-.39-3.3l-.04.02h.08v-.02h0l-.04-.02h0ZM31.09,26.99c0-.1.1-.17.19-.16.1,0,.17.1.16.19-.1.96-.35,1.38-.6,1.81-.21.35-.41.69-.51,1.35,0,.1-.11.16-.19.15-.1,0-.16-.11-.15-.19.11-.74.34-1.11.56-1.49.23-.39.46-.79.56-1.67h-.02,0ZM26.62,27.91c0-.1.06-.18.16-.19.1,0,.18.06.19.16.05.52.29.87.54,1.22.3.42.62.86.65,1.6,0,.1-.07.18-.17.18s-.18-.07-.18-.17c-.02-.64-.31-1.03-.58-1.41-.28-.39-.56-.79-.6-1.4h0v.02h-.01ZM25.19,16.09c-.13,0-.24-.08-.25-.22,0-.13.08-.24.22-.25.25-.02.73-.13,1.21-.3.36-.13.74-.3,1-.5.11-.07.25-.05.33.06s.05.25-.06.33c-.31.22-.71.41-1.11.56-.52.18-1.04.3-1.32.33h-.02,0ZM33.16,23.78v.1c-.08,1.46.42,2.36,1.2,2.95.52.4,1.17.68,1.86.89-1.34-2.14-.94-4.84-.54-7.52.23-1.51.45-3,.35-4.36-.1-1.28-.41-2.39-.91-3.31-.52-.97-1.23-1.74-2.07-2.31-.02-.02-.12,0-.22,0-.21.02-.42.05-.69-.07-.37-.17-.5-.41-.6-.63-.02-.04.05-.04,0-.06-.42-.15-.86-.27-1.32-.34s-.93-.11-1.43-.11c-1.81,0-3.6.65-4.97,1.96-1.21,1.16-2.08,2.83-2.3,5.01-.17,1.7.12,3.51.41,5.25.39,2.33.75,4.56,0,6.42h.01l.08-.02c.81-.22,1.55-.54,2.09-1.04.52-.48.88-1.15.94-2.06v-.44c-.48-.57-.89-1.26-1.18-2.03-.31-.81-.51-1.7-.54-2.68,0-.22.16-.39.37-.4.22,0,.39.16.4.37.02.88.21,1.7.48,2.43.3.77.73,1.45,1.22,1.99.34.36.71.66,1.11.91.79.46,1.67.66,2.51.59.85-.06,1.66-.4,2.31-1.02.3-.28.57-.6.8-.99.73-1.23,1.04-2.96.99-4.65-.05-1.72-.47-3.37-1.23-4.4-.25-.34-.41-.52-.52-.54-.05,0-.16.12-.34.39-.8,1.18-1.9,2.02-3.16,2.61-1.23.58-2.61.93-4.01,1.11-.34.05-.6.19-.8.42-.23.25-.36.62-.44,1.04-.02.22-.23.36-.44.33-.22-.02-.36-.23-.33-.44.08-.56.28-1.06.62-1.44.33-.36.75-.6,1.28-.69,1.33-.18,2.64-.5,3.78-1.05,1.14-.54,2.13-1.29,2.84-2.35.36-.53.69-.77,1.08-.71.35.05.65.33,1.04.85.86,1.17,1.34,2.99,1.39,4.85.05,1.83-.3,3.71-1.1,5.07-.02.04-.05.08-.07.12,0,0,.05,0,.05,0ZM37.48,28.09c1.75.48,2.94,1.02,3.75,2.01.82,1,1.23,2.47,1.41,4.8.17,2.12.79,4.45,1.41,6.83.48,1.81.97,3.65,1.27,5.45.13.82.28,1.62.44,2.37.16.76.33,1.49.5,2.18.52,1.97.79,3.55.93,5.09s.17,3.02.18,4.84c0,.4-.02.85-.06,1.35-.08,1.5-.22,3.6.18,6.4.28,1.93.13,3.6-.4,5.07-.54,1.46-1.46,2.7-2.74,3.76-.52.44-1.02.44-1.4.23-.16-.08-.29-.19-.4-.34-.11-.13-.18-.28-.23-.44-.13-.41-.05-.86.3-1.12.91-.66,1.37-1.41,1.57-2.18.11-.37.15-.77.17-1.16-.22.29-.46.59-.69.86-.24.28-.58.39-.92.36-.19-.01-.37-.06-.54-.16-.17-.1-.31-.24-.41-.41-.15-.27-.19-.6-.05-.99l.02-.04c.16-.31.33-.58.48-.86.53-.88,1.06-1.77,1.15-3.6.02-.63.02-1.26,0-1.9-.02-.63-.08-1.27-.17-1.9-.24-1.98-.65-3.89-1-5.49l-.04-.18c-.06-.25-.12-.52-.19-.81-.04-.16-.08-.33-.16-.63-.21-.86-.39-1.68-.5-2.48-.12-.8-.19-1.6-.18-2.38,0-1.28-.3-2.28-.75-3.41-.06-.16-.13-.31-.19-.48h0c-.04-.08-.07-.18-.11-.28-.41-.99-.87-2.13-1.31-3.64-.25.36-.56.69-.92.97-.17.53-.4,1.25-.46,1.62-.5,3.28.5,5.63,1.55,8.11.34.8.66,1.6.97,2.43,3.17,8.06,1.92,14.28.51,21.37l-.06.33c-.12.59-.3,1.49-.48,2.38-.28,1.37-.56,2.73-.82,4.1-.25,1.39-.52,2.79-.69,4.21-.08.74-.15,1.47-.17,2.22.02.44.02.85,0,1.22,0,.27.02.53.05.8.06.86.15,1.73.24,2.56.17,1.68.33,3.25.25,4.15-.11,2.85-.87,5.43-1.64,8.02-.3,1-.59,2.01-.86,3.02v.06c-.28,1.09-.52,2.19-.65,3.34-.1.79-.12,1.37-.08,1.84.02.45.11.8.22,1.11.25.73.33,1.27.4,1.78.04.3.07.59.16.89v.06s0-.06,0,0c.12.44.46,1.68,1.08,2.3.36.37.54.82.54,1.27,0,.22-.05.44-.12.63-.08.19-.21.39-.36.54-.33.33-.82.54-1.45.54h-4.26c-.4,0-.73-.07-.99-.18-.36-.16-.62-.4-.77-.69-.16-.28-.22-.6-.22-.96,0-.47.13-.98.33-1.43.48-1.14.33-2.32.25-2.78,0-.07-.02-.12-.02-.12-.18-1.51.25-2.47.57-3.14.08-.19.17-.36.21-.5,1.05-3.87.73-6.5.34-9.7-.21-1.7-.44-3.57-.48-5.88-.02-.77.05-1.54.1-2.27.05-.66.1-1.29.08-1.81,0-.44-.05-.86-.11-1.28-.06-.41-.13-.83-.25-1.26-.34-1.26-.51-2.33-.56-3.3-.06-.97,0-1.8.08-2.55.29-2.48.15-3.53-.13-5.69-.02-.23-.06-.47-.11-.82v-.08c-.39-2.95-.85-6.5-.8-10.72-.12.02-.25.02-.37.02-.1,0-.19,0-.29-.01.04,4.22-.42,7.8-.8,10.74v.06c-.06.35-.08.59-.12.82-.28,2.18-.42,3.23-.13,5.69.08.75.13,1.58.08,2.55-.06.97-.22,2.06-.56,3.3-.11.41-.19.83-.25,1.26s-.08.86-.11,1.28c-.02.52.04,1.15.08,1.81.06.73.11,1.49.1,2.27-.05,2.31-.28,4.17-.48,5.88-.39,3.19-.71,5.83.34,9.7.04.15.11.3.21.5.3.68.75,1.62.57,3.14,0,0,0,.05-.02.12-.06.46-.23,1.66.25,2.78.19.45.33.96.33,1.43,0,.34-.06.66-.22.96s-.41.54-.77.69c-.27.11-.59.18-.99.18h-4.26c-.63,0-1.11-.21-1.45-.53-.16-.16-.28-.34-.36-.54-.08-.19-.12-.41-.12-.63,0-.44.17-.89.54-1.27.62-.63.96-1.87,1.08-2.3.02-.08.01-.05,0,0v-.06c.1-.3.13-.58.17-.89.06-.51.13-1.05.4-1.78.12-.33.19-.66.22-1.11.02-.47,0-1.05-.08-1.84-.13-1.15-.36-2.25-.64-3.34v-.06c-.27-1.02-.57-2.02-.87-3.02-.77-2.59-1.54-5.16-1.64-8.02-.06-.91.08-2.48.25-4.15.08-.85.17-1.72.24-2.56.02-.27.04-.53.05-.8-.02-.37-.02-.77,0-1.22-.02-.75-.08-1.49-.17-2.22-.17-1.41-.44-2.82-.69-4.21-.05-.25-.12-.68-.21-1.12-.3-1.64-.65-3.59-1.16-5.59-.54-2.14-.92-4.1-1.16-5.9-.02.13-.06.24-.12.35-.1.17-.24.31-.41.41-.17.1-.35.15-.54.16-.33.02-.68-.08-.92-.36-.24-.27-.47-.56-.69-.86.01.39.06.79.17,1.16.22.76.66,1.5,1.57,2.18.36.27.44.71.3,1.12-.05.16-.13.3-.23.44-.11.13-.24.25-.4.34-.39.21-.88.19-1.4-.23-1.28-1.06-2.21-2.3-2.74-3.76s-.68-3.13-.4-5.07c.4-2.79.28-4.9.18-6.4-.04-.52-.06-.96-.06-1.35.01-1.8.04-3.3.18-4.84s.41-3.12.93-5.09c.18-.69.35-1.41.5-2.18.16-.75.3-1.55.44-2.37.3-1.75.77-3.54,1.26-5.3.66-2.43,1.32-4.82,1.43-6.98.25-5.07,2.3-6.04,5.71-7,1.03-1.75.65-4.1.24-6.56-.29-1.79-.59-3.64-.41-5.44.24-2.37,1.18-4.21,2.53-5.49,1.51-1.44,3.49-2.18,5.5-2.18.52,0,1.04.05,1.55.13s.99.21,1.45.37c.25.08.34.25.44.45.05.08.1.19.21.25.08.04.19.02.3.01.24-.02.47-.05.73.13.96.64,1.75,1.5,2.33,2.59.54,1.02.89,2.22.99,3.63.11,1.44-.12,2.97-.35,4.53-.44,2.9-.87,5.82,1.06,7.79h.02l-.07-.04h0l-.07.02h0ZM17.66,48.73h0c-.06.17-.13.33-.19.48-.45,1.12-.76,2.14-.75,3.41,0,.8-.06,1.58-.18,2.38-.12.79-.29,1.61-.5,2.48-.08.33-.13.57-.18.75-.07.3-.13.52-.17.7-.37,1.47-.79,3.48-1.04,5.42-.19,1.46-.28,2.89-.17,4.01.17,1.9.69,2.78,1.21,3.71.13.24.28.48.44.77v.02c-.34-2.87-.34-5.33-.11-7.56.41-3.76,1.5-6.76,2.76-9.76.66-1.58,1.16-3.11,1.43-4.7.25-1.55.28-3.17.04-4.97-.01,0-.02-.02-.04-.02-.42-.3-.79-.69-1.08-1.12-.44,1.55-.91,2.71-1.33,3.71-.04.1-.07.18-.11.28h-.03,0ZM33.29,30c.13-.02.25.06.28.18.02.13-.06.25-.18.28-.81.17-1.45.5-1.91.88-.54.46-.85.99-.93,1.49-.02.13-.15.21-.27.19-.13-.02-.21-.15-.19-.27.11-.59.47-1.23,1.1-1.77.52-.44,1.22-.8,2.12-.99h-.02,0ZM23.62,65.91c.07.11.05.25-.05.33s-.25.05-.33-.05c-.19-.27-.57-.66-1.08-1.1-.4-.34-.88-.69-1.43-1-.11-.06-.15-.21-.08-.31.06-.11.21-.15.31-.08.56.33,1.06.69,1.49,1.05.54.46.96.89,1.16,1.18h0v-.02h.01ZM28.09,57.36c-.18-.11-.25-.35-.15-.53.11-.18.35-.25.53-.15.07.04.19.06.33.06.16,0,.31-.02.44-.07.19-.08.42,0,.51.21.08.19,0,.42-.21.51-.22.08-.48.13-.74.13s-.52-.06-.71-.16h0ZM34.2,66.19c-.07.11-.22.13-.33.05-.11-.07-.13-.22-.05-.33.21-.29.62-.73,1.16-1.18.42-.36.93-.73,1.49-1.05.11-.06.25-.02.31.08s.02.25-.08.31c-.54.31-1.03.66-1.43,1-.51.44-.89.83-1.08,1.1h0v.02h.01ZM23.97,98.05c-.13.02-.24-.06-.27-.19-.02-.13.06-.24.19-.27.31-.05.68-.25.97-.58.25-.28.44-.64.5-1.06.02-.13.13-.22.25-.19.13.02.22.13.21.25-.07.52-.3.97-.6,1.32-.36.41-.82.66-1.23.74h-.01v-.02h0ZM22.25,121.65c-.04.13-.02.06,0,0ZM21.5,121.44c-.02.07-.05.17,0,0ZM33.93,97.59c.13.02.22.15.19.27s-.15.22-.27.19c-.41-.07-.87-.33-1.23-.74-.3-.34-.54-.79-.6-1.32-.02-.13.07-.24.19-.25.13-.02.24.07.25.19.06.42.24.79.5,1.06.29.33.65.53.97.58h0v.02ZM36.31,121.44c.07.28.02.08,0,0ZM35.56,121.65c.02.08.06.23,0,0Z"/>
  <path class="st1" d="M86.2,28.09c1.75.48,2.94,1.02,3.75,2.01.82,1,1.23,2.47,1.41,4.8.17,2.12.79,4.45,1.41,6.83.48,1.81.97,3.65,1.27,5.45.13.82.28,1.62.44,2.37.16.76.33,1.49.5,2.18.52,1.97.79,3.55.93,5.09s.17,3.02.18,4.84c0,.4-.02.85-.06,1.35-.08,1.5-.22,3.6.18,6.4.28,1.93.13,3.6-.4,5.07-.54,1.46-1.46,2.7-2.74,3.76-.52.44-1.02.44-1.4.23-.16-.08-.29-.19-.4-.34-.11-.13-.18-.28-.23-.44-.13-.41-.05-.86.3-1.12.91-.66,1.37-1.41,1.57-2.18.11-.37.15-.77.17-1.16-.22.29-.46.59-.69.86-.24.28-.58.39-.92.36-.19-.01-.37-.06-.54-.16-.17-.1-.31-.24-.41-.41-.15-.27-.19-.6-.05-.99l.02-.04c.16-.31.33-.58.48-.86.53-.88,1.06-1.77,1.15-3.6.02-.63.02-1.26,0-1.9-.02-.63-.08-1.27-.17-1.9-.24-1.98-.65-3.89-1-5.49l-.04-.18c-.06-.25-.12-.52-.19-.81-.04-.16-.08-.33-.16-.63-.21-.86-.39-1.68-.5-2.48-.12-.8-.19-1.6-.18-2.38,0-1.28-.3-2.28-.75-3.41-.06-.16-.13-.31-.19-.48h0c-.04-.08-.07-.18-.11-.28-.41-.99-.87-2.13-1.31-3.64-.25.36-.56.69-.92.97-.17.53-.4,1.25-.46,1.62-.5,3.28.5,5.63,1.55,8.11.34.8.66,1.6.97,2.43,3.17,8.06,1.92,14.28.51,21.37l-.06.33c-.12.59-.3,1.49-.48,2.38-.28,1.37-.56,2.73-.82,4.1-.25,1.39-.52,2.79-.69,4.21-.08.74-.15,1.47-.17,2.22.02.44.02.85,0,1.22,0,.27.02.53.05.8.06.86.15,1.73.24,2.56.17,1.68.33,3.25.25,4.15-.11,2.85-.87,5.43-1.64,8.02-.3,1-.59,2.01-.86,3.02v.06c-.28,1.09-.52,2.19-.65,3.34-.1.79-.12,1.37-.08,1.84.02.45.11.8.22,1.11.25.73.33,1.27.4,1.78.04.3.07.59.16.89v.06s0-.06,0,0c.12.44.46,1.68,1.08,2.3.36.37.54.82.54,1.27,0,.22-.05.44-.12.63-.08.19-.21.39-.36.54-.33.33-.82.54-1.45.54h-4.26c-.4,0-.73-.07-.99-.18-.36-.16-.62-.4-.77-.69-.16-.28-.22-.6-.22-.96,0-.47.13-.98.33-1.43.48-1.14.33-2.32.25-2.78,0-.07-.02-.12-.02-.12-.18-1.51.25-2.47.57-3.14.08-.19.17-.36.21-.5,1.05-3.87.73-6.5.34-9.7-.21-1.7-.44-3.57-.48-5.88-.02-.77.05-1.54.1-2.27.05-.66.1-1.29.08-1.81,0-.44-.05-.86-.11-1.28-.06-.41-.13-.83-.25-1.26-.34-1.26-.51-2.33-.56-3.3-.06-.97,0-1.8.08-2.55.29-2.48.15-3.53-.13-5.69-.02-.23-.06-.47-.11-.82v-.08c-.39-2.95-.85-6.5-.8-10.72-.12.02-.25.02-.37.02-.1,0-.19,0-.29-.01.04,4.22-.42,7.8-.8,10.74v.06c-.06.35-.08.59-.12.82-.28,2.18-.42,3.23-.13,5.69.08.75.13,1.58.08,2.55-.06.97-.22,2.06-.56,3.3-.11.41-.19.83-.25,1.26s-.08.86-.11,1.28c-.02.52.04,1.15.08,1.81.06.73.11,1.49.1,2.27-.05,2.31-.28,4.17-.48,5.88-.39,3.19-.71,5.83.34,9.7.04.15.11.3.21.5.3.68.75,1.62.57,3.14,0,0,0,.05-.02.12-.06.46-.23,1.66.25,2.78.19.45.33.96.33,1.43,0,.34-.06.66-.22.96s-.41.54-.77.69c-.27.11-.59.18-.99.18h-4.26c-.63,0-1.11-.21-1.45-.53-.16-.16-.28-.34-.36-.54-.08-.19-.12-.41-.12-.63,0-.44.17-.89.54-1.27.62-.63.96-1.87,1.08-2.3.02-.08.01-.05,0,0v-.06c.1-.3.13-.58.17-.89.06-.51.13-1.05.4-1.78.12-.33.19-.66.22-1.11.02-.47,0-1.05-.08-1.84-.13-1.15-.36-2.25-.64-3.34v-.06c-.27-1.02-.57-2.02-.87-3.02-.77-2.59-1.54-5.16-1.64-8.02-.06-.91.08-2.48.25-4.15.08-.85.17-1.72.24-2.56.02-.27.04-.53.05-.8-.02-.37-.02-.77,0-1.22-.02-.75-.08-1.49-.17-2.22-.17-1.41-.44-2.82-.69-4.21-.05-.25-.12-.68-.21-1.12-.3-1.64-.65-3.59-1.16-5.59-.54-2.14-.92-4.1-1.16-5.9-.02.13-.06.24-.12.35-.1.17-.24.31-.41.41-.17.1-.35.15-.54.16-.33.02-.68-.08-.92-.36-.24-.27-.47-.56-.69-.86,0,.39.06.79.17,1.16.22.76.66,1.5,1.57,2.18.36.27.44.71.3,1.12-.05.16-.13.3-.23.44-.11.13-.24.25-.4.34-.39.21-.88.19-1.4-.23-1.28-1.06-2.21-2.3-2.74-3.76s-.68-3.13-.4-5.07c.4-2.79.28-4.9.18-6.4-.04-.52-.06-.96-.06-1.35,0-1.8.04-3.3.18-4.84s.41-3.12.93-5.09c.18-.69.35-1.41.5-2.18.16-.75.3-1.55.44-2.37.3-1.75.77-3.54,1.26-5.3.66-2.43,1.32-4.82,1.43-6.98.25-5.07,2.3-6.04,5.71-7,1.03-1.75.65-4.1.24-6.56-.29-1.79-.59-3.64-.41-5.44.24-2.37,1.18-4.21,2.53-5.49,1.51-1.44,3.49-2.18,5.5-2.18.52,0,1.04.05,1.55.13s.99.21,1.45.37c.25.08.34.25.44.45.05.08.1.19.21.25.08.04.19.02.3.01.24-.02.47-.05.73.13.96.64,1.75,1.5,2.33,2.59.54,1.02.89,2.22.99,3.63.11,1.44-.12,2.97-.35,4.53-.44,2.9-.87,5.82,1.06,7.79h.02l-.07-.04h.01l-.07.02h0ZM66.37,48.73h0c-.06.17-.13.33-.19.48-.45,1.12-.76,2.14-.75,3.41,0,.8-.06,1.58-.18,2.38-.12.79-.29,1.61-.5,2.48-.08.33-.13.57-.18.75-.07.3-.13.52-.17.7-.37,1.47-.79,3.48-1.04,5.42-.19,1.46-.28,2.89-.17,4.01.17,1.9.69,2.78,1.21,3.71.13.24.28.48.44.77v.02c-.34-2.87-.34-5.33-.11-7.56.41-3.76,1.5-6.76,2.76-9.76.66-1.58,1.16-3.11,1.43-4.7.25-1.55.28-3.17.04-4.97-.01,0-.02-.02-.04-.02-.42-.3-.79-.69-1.08-1.12-.44,1.55-.91,2.71-1.33,3.71-.04.1-.07.18-.11.28h-.03Z"/>
</svg>