<?xml version="1.0" encoding="UTF-8"?>
<svg id="Layer_1" xmlns="http://www.w3.org/2000/svg" version="1.1" viewBox="0 0 110 135">
  <!-- Generator: Adobe Illustrator 30.2.1, SVG Export Plug-In . SVG Version: 2.1.1 Build 1)  -->
  <defs>
    <style>
      .st0 {
        fill: #4a5acf;
      }

      .st1 {
        fill: #3a4abf;
      }

      .st2 {
        fill: #fff;
      }
    </style>
  </defs>
  <path class="st0" d="M47.46,67.75c-.15-1.32-.32-2.65-.3-4.03,0-1.14.1-2.3.18-3.44.23-3.23.45-6.34-.87-9.39-.3-.62-.45-1.48-.54-2.54-.1-1.1-.11-2.38-.13-3.84,0-1.08-.04-2.18-.14-3.23-.11-1.04-.3-2.01-.63-2.88.2-1.11.13-2.18-.21-3.15-.49-1.39-1.53-2.55-3.07-3.24-.1-.05-.19-.08-.29-.12-.44-.18-1-.46-1.57-.79-.76-.43-1.51-.91-2-1.23l-.06-.05c-.52-.38-1.11-.71-1.74-1.02-.24-.12-.32-.17-.41-.2-1.08-.52-2.14-1.04-2.23-2.14v-.04l.06.06h.05c-.02-.15-.02-.29-.02-.43-.02-.92.18-1.86.43-2.84.14-.43.26-.89.37-1.37.36-.05.63-.24.87-.51.27-.32.46-.73.64-1.17.21-.52.31-1,.33-1.41.02-.45-.06-.82-.2-1.11-.15-.31-.39-.54-.68-.66.05-.41.1-.82.13-1.23.05-.54.1-1.07.18-1.61.29-1.86-.02-2.86-.52-3.42l-1.73-.44c-.15-.07-.33-1.64-.55-1.7h-.08c-1.33-.27-2.82-.41-4.23-.31-1.43.11-2.79.44-3.87,1.13-1.11.7-1.93,1.76-2.23,3.29-.11.58-.15,1.23-.11,1.95.02.27.14,1.31.35,2.34-.39.19-.63.68-.71,1.3-.04.33-.04.7,0,1.08s.11.75.24,1.1c.26.71.7,1.27,1.35,1.36.12.57.27,1.12.44,1.63.2,1.16.35,2.19.31,3.12v.04c-.11,1.17-1.49,1.81-2.9,2.47-.57.26-1.13.55-1.66.88-.02.02-.06.04-.08.06-.24.14-.5.27-.77.42-.52.27-1.05.51-1.43.7l-.08.04c-1.94.93-3.87,1.86-4.68,3.92-.3.76-.43,1.61-.38,2.49,0,.29.05.56.1.83-.33.87-.52,1.86-.63,2.88-.1,1.05-.13,2.14-.14,3.23-.02,1.45-.04,2.73-.13,3.84-.1,1.06-.25,1.92-.54,2.55-1.33,3.05-1.1,6.43-.86,9.84.14,2.11.3,4.23.06,6.23-.06.42-.1.76-.14,1.11-.17,1.23-.32,2.47-.31,3.74,0,.74.04,1.48.1,2.14.06.69.14,1.33.25,1.89.12.64.54,1.31,1.06,1.92.71.82,1.64,1.57,2.32,2.07.49.37.94.36,1.3.17.15-.08.29-.21.39-.36s.18-.3.23-.46c.13-.46.05-1-.31-1.29-1.62-1.3-1.91-1.81-1.73-3.15.17.42.3.87.38,1.25.05.49.33.81.68.94.14.05.3.07.45.07.15-.01.3-.05.44-.12.33-.18.57-.51.57-1.01v-.06c0-.31-.02-1.42-.35-2.74-.13-.54-.2-.95-.26-1.33s-.11-.73-.21-1.13c-.17-.63-.44-1-.68-1.32-.07-.1-.13-.19-.18-.25-.76-1.18.43-4.68,1.11-6.66.1-.26.18-.51.23-.67.3-.93.68-2.32.87-4.02.19-1.68.2-3.68-.21-5.83,0-.05-.02-.08-.05-.12.07-.12.14-.24.21-.37.71-1.22,1.56-2.65,2.05-4.27.31.94.56,1.86.7,2.9.2,1.42.2,3.06-.12,5.24-.15,1-.27,1.93-.35,2.84-.08.89-.11,1.78-.08,2.66.04,1.35-.27,2.66-.63,4.17-.05.21-.11.43-.18.75-1.64,7.17-.24,13.58,1.02,19.35l.07.35c.33,1.51.6,2.91.74,4.3s.17,2.79.02,4.33c-.04.46-.1,1.01-.15,1.57-.21,2.06-.43,4.17-.35,5.27.11,2.9.88,5.52,1.67,8.15.63,2.12,1.26,4.25,1.54,6.53.1.8.12,1.39.1,1.87-.02.46-.11.81-.23,1.14-.26.75-.35,1.3-.41,1.81-.04.32-.08.61-.17.92v.02c-.11.41-.49,1.79-1.07,2.54-.32.42-.46.85-.46,1.23,0,.24.06.48.17.68s.25.38.44.52c.33.26.77.41,1.27.41h4.29c1.12,0,1.69-.38,1.93-1.02.21-.57.12-1.31-.06-2.14-.06-.26-.08-.55-.12-.82,0-.08-.02-.18-.05-.35-.05-.36-.1-.7-.1-1.04s0-.62.06-.88c.11-.56.13-1.05.1-1.49-.04-.43-.12-.81-.2-1.17-.11-.44-.18-.77-.23-1.12s-.07-.69-.1-1.14c-.02-.51-.04-1.08-.02-1.7s.05-1.3.11-2.06c0-.11.04-.33.08-.66.27-1.86,1-6.71.13-11.34-.02-.19-.07-.36-.13-.57-.23-.88-.62-2.35-.37-5.34v-.08c.05-.6.23-2.79.27-5.9,0-1.91.19-3.84.36-5.76l.02-.32c.08-.85.33-1.85.6-2.85.08-.32.15-.64.24-.97.08.41.18.82.29,1.25.15.64.31,1.3.43,1.94.21,1.12.35,2.26.43,3.4s.12,2.24.13,3.29c.05,3.11.23,5.29.29,5.9v.08c.25,2.99-.14,4.46-.38,5.34-.05.21-.1.39-.13.57-.86,4.64-.14,9.48.13,11.34.04.31.08.55.08.66.06.76.1,1.44.11,2.06,0,.62,0,1.19-.02,1.7-.02.45-.05.8-.1,1.14-.05.33-.12.68-.23,1.12-.1.35-.17.73-.2,1.17s0,.93.1,1.49c.06.26.06.56.06.88s-.05.68-.1,1.04c-.02.17-.05.25-.05.35-.04.29-.06.57-.12.82-.18.83-.27,1.57-.06,2.14.24.63.8,1.02,1.93,1.02h4.33c.62,0,1.12-.21,1.45-.55.17-.15.29-.33.37-.54s.13-.42.13-.63c0-.44-.18-.91-.55-1.27-.63-.64-.98-1.92-1.1-2.36l-.02-.06c-.08-.31-.12-.61-.17-.92-.07-.51-.14-1.07-.41-1.81-.12-.33-.2-.69-.23-1.14-.02-.48,0-1.06.1-1.87.13-1.13.35-2.22.62-3.28v-.05c.27-1.08.58-2.16.91-3.22.79-2.62,1.56-5.24,1.67-8.15.08-1.1-.13-3.21-.35-5.27-.05-.55-.11-1.11-.15-1.57-.04-.39-.06-.77-.08-1.14,0-.14-.02-.3-.02-.45-.04-.94,0-1.85.07-2.75.13-1.39.39-2.79.79-4.27,1.05-3.92,1.64-7.3,1.79-10.57.14-3.26-.15-6.4-.89-9.81-.18-.83-.32-1.67-.43-2.38-.14-.93-.2-1.64-.2-1.87.02-.88,0-1.75-.08-2.66s-.2-1.83-.35-2.84c-.32-2.18-.32-3.82-.12-5.24.14-.97.37-1.83.64-2.7.42,1.64,1.22,2.92,1.91,4.02.13.2.25.41.37.6-.48,4.91.58,8.79,1.55,12.32l.04.13c.29,1.05,1.02,3.78.45,4.65-.05.07-.12.15-.18.25-.25.32-.51.69-.68,1.32-.1.41-.15.75-.21,1.13-.07.39-.13.8-.26,1.33-.33,1.31-.35,2.43-.35,2.74v.06c0,.5.24.85.57,1.01.13.07.29.12.44.12.15.01.31,0,.45-.07.35-.13.63-.45.68-.94.08-.38.21-.82.38-1.25.17,1.32-.11,1.85-1.73,3.15-.36.29-.44.82-.31,1.29.05.17.12.32.23.46s.24.27.39.36c.36.19.8.19,1.3-.17.68-.5,1.61-1.24,2.32-2.07.52-.61.94-1.27,1.06-1.92.11-.56.19-1.22.25-1.89.05-.68.1-1.41.1-2.14,0-1.42-.14-2.74-.3-4.06h0l-.03.03h0Z"/>
  <path class="st2" d="M20.45,30.28c-.15.11-.35.21-.54.32-.45.3-.87.63-1.22,1-.14.15-.38.17-.54.02-.04-.02-.06-.06-.07-.1-.17.08-.33.15-.48.24l-.08.04c-1.81.87-3.61,1.73-4.31,3.53-.26.67-.38,1.41-.33,2.18.01.27.05.55.11.83h0c.1.51.26,1.02.49,1.54.08.19,0,.41-.19.49s-.41,0-.49-.19c-.07-.15-.13-.31-.19-.46-.12.51-.2,1.06-.26,1.62-.11,1.02-.13,2.11-.14,3.16-.02,1.49-.04,2.8-.13,3.9-.1,1.13-.26,2.07-.6,2.79-1.25,2.88-1.02,6.17-.79,9.48.14,2.14.3,4.29.06,6.36-.04.32-.08.73-.14,1.12-.15,1.2-.32,2.41-.3,3.63,0,.7.05,1.41.1,2.09.06.67.13,1.29.24,1.81.1.5.44,1.05.89,1.57.67.77,1.55,1.49,2.19,1.95.21.15.38.18.5.11.06-.04.11-.08.14-.14.05-.06.08-.14.11-.24.06-.2.05-.42-.05-.5-2.38-1.91-2.3-2.38-1.79-5.05.05-.26.11-.54.13-.73.04-.2.24-.35.43-.3.2.04.35.24.3.43-.05.3-.08.49-.12.66.18.27.33.6.46.94.19.49.35.99.44,1.42v.06c.02.18.11.29.21.33.05.02.1.02.14.02s.1-.01.14-.04c.1-.05.17-.15.17-.33v-.06c0-.3-.01-1.33-.32-2.57-.13-.55-.2-.99-.27-1.39-.06-.36-.11-.69-.2-1.06-.13-.49-.36-.79-.55-1.06-.06-.08-.13-.17-.19-.27-.98-1.48.3-5.21,1.02-7.3.08-.23.14-.43.23-.67.3-.89.66-2.24.85-3.86.17-1.43.19-3.07-.07-4.85-.05.08-.08.15-.12.24-.08.19-.31.26-.5.18s-.26-.31-.18-.5c.24-.5.57-1.06.93-1.67.86-1.47,1.91-3.23,2.25-5.22-.24-.74-.41-1.5-.5-2.22-.11-.8-.13-1.56-.07-2.23-.13-.11-.29-.17-.48-.18-.2,0-.36-.19-.36-.39s.19-.36.39-.36c.39.02.71.17.99.42.25.23.44.54.58.88.18.43.55,1.02,1.13,1.49.42.35.93.61,1.55.7.2.04.35.23.31.43s-.23.35-.43.31c-.76-.12-1.41-.45-1.91-.87-.45-.37-.81-.81-1.06-1.22.01.3.05.6.08.92.08.68.24,1.38.46,2.07.02.05.05.11.05.15.01.05.02.08.05.13.46,1.35.88,2.59,1.08,4.08.21,1.49.21,3.19-.12,5.45-.14.98-.26,1.89-.33,2.79s-.11,1.74-.08,2.59c0,.38,0,.75-.04,1.12.02.05.04.11.04.15,0,.58.05,1.16.12,1.69.06.51.14.98.25,1.36.06.2-.06.41-.26.46s-.41-.06-.46-.26c-.06-.23-.12-.46-.17-.73-.05.19-.08.37-.13.56-.06.27-.13.55-.18.75-1.61,6.99-.23,13.33,1.02,19.03l.07.35c.33,1.53.6,2.94.75,4.38.1.89.13,1.8.12,2.74v.11c-.05.77,0,1.42.12,1.97.13.54.33,1,.61,1.42.11.17.06.41-.11.51s-.41.06-.51-.11c-.13-.2-.25-.42-.36-.64v.06c-.21,2.04-.43,4.1-.35,5.14h0c.1,2.82.87,5.41,1.64,8,.32,1.06.64,2.14.92,3.23v.02c.24.89.43,1.87.61,2.75.24,1.22.45,2.26.69,2.66.11.18.06.41-.12.51-.15.1-.36.06-.48-.07-.05.35-.13.63-.23.92-.24.68-.31,1.18-.37,1.64-.05.35-.08.66-.18,1.01v.02c-.13.44-.54,1.93-1.22,2.81-.21.27-.31.54-.31.76,0,.13.02.24.08.35s.13.2.24.27c.2.15.49.25.81.25h4.29c.75,0,1.11-.21,1.23-.55.14-.41.06-1.01-.08-1.73-.06-.3-.1-.6-.13-.89-.01-.14-.04-.27-.04-.35-.05-.38-.08-.75-.1-1.11,0-.37,0-.73.07-1.05.1-.48.11-.91.08-1.29s-.11-.73-.18-1.05c-.12-.46-.19-.83-.24-1.19s-.08-.74-.1-1.22c-.02-.52-.02-1.1-.02-1.74.01-.66.05-1.36.11-2.11,0-.13.05-.38.1-.71.27-1.83.98-6.59.13-11.1-.02-.13-.07-.3-.13-.51-.25-.93-.66-2.48-.41-5.6v-.08c.06-.61.24-2.8.29-5.85.02-1.98.19-3.91.36-5.81l.02-.32c.08-.89.35-1.93.62-2.98.31-1.22.63-2.44.63-3.43l-.02-1.19c-.38-.05-.75-.18-1.1-.38-.46-.27-.88-.68-1.19-1.22l-.08-.14c-.31-.54-.64-1.11-1.29-1.47-.18-.1-.25-.32-.15-.51s.32-.25.51-.15c.83.45,1.22,1.12,1.57,1.74.06.1.06.11.08.14.25.43.57.74.93.95.35.2.71.3,1.08.3s.75-.1,1.08-.3c.36-.21.68-.52.93-.95.17-.29.19-.33.08-.14.36-.63.75-1.3,1.57-1.74.18-.1.41-.02.51.15.1.18.02.41-.15.51-.64.35-.98.92-1.29,1.47l-.08.14c-.32.55-.73.95-1.19,1.22-.35.2-.71.32-1.08.38l.02,1.19v.06c0,1.13.3,2.38.61,3.68.15.64.31,1.3.43,1.98.21,1.17.36,2.34.44,3.48.08,1.13.12,2.25.13,3.34.05,3.05.23,5.24.27,5.85v.08c.26,3.12-.15,4.66-.39,5.6-.06.2-.11.38-.13.51-.85,4.52-.14,9.28.13,11.1.05.33.08.57.1.71.06.75.1,1.45.11,2.11.01.64,0,1.23-.02,1.74-.02.49-.05.85-.1,1.22s-.13.73-.24,1.19c-.08.32-.14.66-.18,1.05-.02.38-.01.81.08,1.29.06.32.08.68.07,1.05,0,.36-.05.74-.1,1.11,0,.06-.02.2-.04.35-.04.3-.06.6-.13.89-.15.71-.24,1.33-.08,1.73.13.33.49.54,1.23.54h4.33c.42,0,.73-.13.93-.32.08-.08.15-.19.2-.3s.07-.23.07-.35c0-.25-.11-.52-.33-.75-.77-.79-1.16-2.19-1.29-2.68-.04-.12-.02-.06,0,0v-.06c-.11-.36-.15-.68-.19-1.01-.06-.46-.13-.98-.37-1.64-.1-.27-.18-.57-.23-.92-.12.13-.32.17-.48.07-.18-.11-.23-.35-.12-.51.24-.38.45-1.44.69-2.66.18-.88.37-1.86.61-2.75h0c.27-1.11.6-2.18.92-3.25.77-2.6,1.54-5.17,1.64-7.98h0c.08-1.06-.13-3.12-.35-5.15v-.06c-.11.23-.24.44-.37.64-.11.17-.35.21-.51.11s-.21-.35-.11-.51c.27-.42.48-.87.61-1.42.11-.45.15-.97.14-1.56,0-.13,0-.25-.02-.37v-.08c-.04-.97,0-1.89.08-2.81.13-1.44.41-2.87.81-4.4,1.04-3.87,1.62-7.21,1.76-10.41.14-3.19-.15-6.27-.87-9.62-.06-.3-.13-.61-.18-.89-.06.39-.13.73-.19.98-.06.2-.26.32-.46.26s-.32-.26-.26-.46c.11-.36.2-1.01.27-1.72.08-.8.14-1.66.17-2.28v-.31c.02-.85,0-1.69-.08-2.59-.07-.89-.19-1.81-.33-2.79-.33-2.25-.32-3.97-.12-5.45s.62-2.73,1.08-4.08c0-.05.02-.08.05-.13,0-.06.02-.12.06-.17.23-.69.38-1.39.46-2.07.05-.36.07-.71.08-1.05-.29.49-.74,1.04-1.38,1.44-.61.39-1.36.66-2.28.64-.2,0-.37-.18-.36-.38s.18-.37.38-.36c.74.02,1.36-.2,1.85-.51.68-.45,1.12-1.08,1.31-1.54.14-.36.33-.66.58-.88.26-.24.6-.39.99-.42.2,0,.38.14.39.36,0,.2-.14.38-.36.39-.15,0-.3.06-.42.13.06.68.05,1.45-.06,2.28-.1.73-.26,1.49-.5,2.24.19,2.19,1.19,3.79,2.04,5.12.51.81.97,1.54,1.17,2.25.06.2-.06.41-.26.46s-.41-.06-.46-.26c0-.05-.02-.11-.05-.15-.19,4.22.75,7.66,1.62,10.83l.04.13c.31,1.14,1.12,4.1.36,5.25-.07.11-.13.19-.19.27-.2.27-.43.58-.55,1.06-.1.36-.14.7-.2,1.06-.06.41-.13.85-.27,1.39-.31,1.24-.32,2.28-.32,2.57v.06c0,.17.06.27.17.33.05.02.08.04.14.04.05,0,.1,0,.14-.02.11-.05.19-.15.21-.33v-.06c.11-.43.25-.93.44-1.42.13-.33.29-.66.46-.94-.04-.17-.07-.36-.12-.66-.04-.2.1-.39.3-.43s.39.1.43.3c.04.18.08.46.13.73.5,2.67.58,3.15-1.79,5.05-.11.08-.11.3-.05.5.02.08.06.17.11.24.05.06.1.11.14.14.11.06.27.05.5-.11.64-.46,1.53-1.18,2.19-1.95.45-.52.8-1.06.89-1.57.1-.52.18-1.14.24-1.81.06-.68.1-1.38.1-2.09,0-1.36-.14-2.67-.3-3.98-.15-1.33-.32-2.68-.3-4.12.02-1.19.11-2.35.18-3.49.23-3.13.45-6.15-.8-9.02-.33-.71-.5-1.66-.6-2.79-.1-1.1-.11-2.41-.13-3.9,0-1.06-.04-2.13-.14-3.16-.06-.56-.14-1.11-.26-1.62,0,.04-.02.07-.05.11-.05.11-.1.23-.14.36-.08.19-.31.27-.49.19-.19-.08-.27-.31-.19-.49.05-.11.08-.2.13-.32.56-1.43.62-2.86.19-4.08-.43-1.2-1.32-2.2-2.68-2.81-.08-.04-.17-.07-.25-.11-.48-.19-1.07-.49-1.67-.82-.1-.05-.19-.11-.27-.15-.02.04-.05.06-.08.08-.17.13-.41.1-.52-.07-.35-.45-.76-.83-1.24-1.17-.49-.36-1.05-.67-1.64-.95-.02,0-.21-.11-.41-.19-.43-.21-.86-.42-1.24-.66.02.05.05.1.08.14.11.18.05.41-.13.51s-.41.05-.51-.13c-.49-.83-.74-1.66-.83-2.47,0-.05,0-.11-.02-.15v-.02c0-.15-.02-.32-.02-.48v-.55s0,.02-.02.02c-.33.41-.73.76-1.18,1.05-.13,1.22-.45,1.76-.76,2.3-.26.44-.52.88-.66,1.73-.02.12-.13.21-.25.19s-.21-.13-.19-.25c.14-.94.43-1.42.7-1.89.26-.45.54-.91.67-1.81-.63.3-1.38.49-2.28.55h-.06c-1.8-.13-2.98-.81-3.8-1.87,0,0-.01-.02-.02-.02.02.38.04.76.02,1.12-.05,1.05-.3,1.98-.92,2.81-.12.17-.36.2-.52.08s-.2-.36-.08-.52c.07-.11.14-.2.2-.31-.58.41-1.3.74-2.03,1.07h0c-.37.17-.74.36-1.1.55h-.02l.08.02h0ZM33.45,26.43v.04c.08,1.11,1.14,1.62,2.23,2.14.08.04.17.08.41.2.63.31,1.22.64,1.74,1.02l.06.05c.49.32,1.24.8,2,1.23.57.32,1.13.61,1.57.79.1.04.19.07.29.12,1.55.69,2.59,1.85,3.07,3.24.35.97.42,2.04.21,3.15.33.87.52,1.85.63,2.88.11,1.05.13,2.14.14,3.23.02,1.45.04,2.74.13,3.84.08,1.06.24,1.92.54,2.54h0c1.32,3.05,1.1,6.16.87,9.39-.08,1.14-.17,2.3-.18,3.44-.02,1.38.14,2.7.3,4.03s.31,2.65.3,4.06c0,.74-.05,1.47-.1,2.14-.06.68-.14,1.33-.25,1.89-.12.64-.54,1.31-1.06,1.92-.71.83-1.64,1.57-2.32,2.07-.5.36-.94.36-1.3.17-.15-.08-.29-.21-.39-.36s-.18-.3-.23-.46c-.13-.46-.05-1,.31-1.29,1.62-1.3,1.89-1.82,1.73-3.15-.17.43-.3.87-.38,1.25-.05.49-.33.81-.68.94-.14.06-.3.08-.45.07-.15,0-.31-.05-.44-.12-.33-.17-.58-.51-.57-1.01v-.06c0-.31,0-1.43.35-2.74.13-.54.19-.94.26-1.33.06-.38.12-.73.21-1.13.17-.63.43-1,.68-1.32.06-.1.13-.18.18-.25.57-.87-.17-3.6-.45-4.65l-.04-.13c-.97-3.53-2.03-7.41-1.55-12.32-.12-.19-.24-.39-.37-.6-.69-1.1-1.49-2.37-1.91-4.02-.27.87-.5,1.74-.64,2.7-.2,1.42-.2,3.06.12,5.24.14,1,.26,1.93.35,2.84.07.91.11,1.78.08,2.66,0,.23.06.94.2,1.87.11.71.25,1.55.43,2.38.74,3.41,1.04,6.54.89,9.81s-.74,6.65-1.79,10.57c-.39,1.48-.66,2.87-.79,4.27-.08.91-.11,1.81-.07,2.75,0,.15.02.31.02.45.02.37.05.75.08,1.14.05.46.11,1.02.15,1.57.21,2.06.43,4.17.35,5.27-.11,2.91-.88,5.53-1.67,8.15-.32,1.06-.63,2.13-.91,3.22v.05c-.27,1.06-.49,2.14-.62,3.28-.1.81-.12,1.39-.1,1.87.02.45.11.81.23,1.14.26.74.33,1.3.41,1.81.05.31.08.61.17.92l.02.06s-.02-.08,0,0c.12.44.46,1.72,1.1,2.36.37.37.55.83.55,1.27,0,.21-.05.43-.13.63s-.2.38-.37.54c-.33.33-.83.55-1.45.55h-4.33c-1.13,0-1.69-.39-1.93-1.02-.21-.57-.12-1.31.06-2.14.06-.25.08-.54.12-.82,0-.1.02-.18.05-.35.05-.36.08-.7.1-1.04,0-.32,0-.62-.06-.88-.11-.56-.13-1.05-.1-1.49s.11-.82.2-1.17c.11-.44.18-.79.23-1.12.05-.35.07-.69.1-1.14.02-.51.02-1.08.02-1.7-.01-.62-.05-1.3-.11-2.06,0-.11-.05-.35-.08-.66-.27-1.86-.99-6.71-.13-11.34.04-.18.08-.36.13-.57.24-.88.63-2.35.38-5.34v-.08c-.06-.61-.24-2.79-.29-5.9-.01-1.05-.05-2.14-.13-3.29-.08-1.13-.21-2.28-.43-3.4-.12-.64-.27-1.3-.43-1.94-.11-.43-.2-.85-.29-1.25-.08.32-.15.64-.24.97-.26,1-.51,2-.6,2.85l-.02.32c-.17,1.92-.35,3.85-.36,5.76-.05,3.11-.23,5.3-.27,5.9v.08c-.25,2.99.14,4.46.37,5.34.06.21.11.38.13.57.87,4.64.14,9.48-.13,11.34-.05.32-.08.55-.08.66-.06.76-.1,1.44-.11,2.06-.01.62,0,1.19.02,1.7.02.45.05.8.1,1.14s.12.68.23,1.12c.08.36.17.74.2,1.17.04.44.01.93-.1,1.49-.06.26-.07.56-.06.88,0,.33.05.68.1,1.04.02.17.04.26.05.35.04.27.06.56.12.82.18.83.27,1.57.06,2.14-.24.64-.81,1.02-1.93,1.02h-4.29c-.5,0-.94-.14-1.27-.41-.19-.14-.33-.32-.44-.52s-.17-.44-.17-.68c0-.38.14-.81.46-1.23.58-.75.97-2.13,1.07-2.54v-.02c.08-.31.13-.6.17-.92.06-.51.14-1.06.41-1.81.12-.33.2-.68.23-1.14.02-.48,0-1.07-.1-1.87-.27-2.28-.91-4.41-1.54-6.53-.79-2.63-1.56-5.25-1.67-8.15-.08-1.1.13-3.21.35-5.27.06-.56.12-1.11.15-1.57.14-1.54.12-2.93-.02-4.33s-.41-2.79-.74-4.3l-.07-.35c-1.26-5.77-2.67-12.18-1.02-19.35.07-.32.13-.54.18-.75.36-1.51.67-2.82.63-4.17-.02-.88,0-1.76.08-2.66.07-.91.19-1.83.35-2.84.32-2.18.32-3.82.12-5.24-.14-1.04-.39-1.95-.7-2.9-.49,1.62-1.33,3.05-2.05,4.27-.07.13-.14.25-.21.37.02.04.04.07.05.12.42,2.14.41,4.15.21,5.83-.19,1.69-.57,3.09-.87,4.02-.05.15-.13.41-.23.67-.68,1.98-1.87,5.48-1.11,6.66.05.06.11.15.18.25.24.32.51.69.68,1.32.11.41.15.75.21,1.13s.13.8.26,1.33c.32,1.32.33,2.43.35,2.74v.06c0,.5-.24.83-.57,1.01-.14.07-.29.11-.44.12-.15,0-.31-.02-.45-.07-.35-.13-.63-.45-.68-.94-.08-.38-.21-.83-.38-1.25-.18,1.33.11,1.85,1.73,3.15.36.29.44.82.31,1.29-.05.17-.12.32-.23.46s-.24.27-.39.36c-.36.19-.81.2-1.3-.17-.68-.5-1.61-1.25-2.32-2.07-.52-.61-.94-1.27-1.06-1.92-.11-.56-.19-1.2-.25-1.89-.06-.67-.1-1.41-.1-2.14,0-1.27.14-2.51.31-3.74.05-.35.08-.69.14-1.11.24-2,.08-4.12-.06-6.23-.24-3.41-.48-6.79.86-9.84h0c.29-.63.44-1.49.54-2.55.1-1.11.11-2.38.13-3.84.01-1.08.05-2.18.14-3.23.11-1.02.3-2.01.63-2.88-.05-.27-.08-.55-.1-.83-.05-.88.08-1.73.38-2.49.81-2.06,2.74-2.99,4.68-3.92l.08-.04c.38-.19.91-.43,1.43-.7.27-.14.54-.27.77-.42.02-.02.06-.04.08-.06.52-.33,1.08-.62,1.66-.88h0c1.41-.66,2.79-1.3,2.9-2.47v-.04c.04-.93-.11-1.97-.31-3.12-.17-.51-.32-1.06-.44-1.63-.64-.08-1.08-.64-1.35-1.36-.13-.35-.2-.71-.24-1.1s-.04-.75,0-1.08c.08-.62.32-1.11.71-1.3h0c-.2-1.02-.32-2.06-.35-2.34-.05-.73,0-1.37.11-1.95.3-1.53,1.12-2.59,2.23-3.29,1.08-.69,2.44-1.02,3.87-1.13,1.41-.1,2.9.04,4.23.31h.08c.21.06.39.1.55.17.39.21.48.5.14,1.14h0s-.05.1-.07.14c.5.02,1.16.12,1.66.68s.81,1.56.52,3.42c-.08.54-.13,1.07-.18,1.61-.04.41-.08.82-.13,1.23h0c.29.12.52.35.68.66.14.29.23.66.2,1.11-.02.41-.12.88-.33,1.41-.18.44-.37.85-.64,1.17-.24.27-.51.46-.87.51-.11.48-.23.94-.37,1.37-.25.98-.45,1.92-.43,2.84,0,.14,0,.27.02.43h-.05l-.06-.06h0l.03-.02h0ZM33.14,22.96v-.02c.15-.5.3-1.02.42-1.6l.07-.35.35.05c.23.02.41-.07.55-.25.19-.24.36-.58.51-.95.18-.44.26-.83.27-1.14,0-.31-.04-.55-.13-.74-.04-.08-.08-.14-.14-.19v.06c-.11.58-.33,1.08-.55,1.32-.13.14-.29.23-.45.24-.2,0-.38-.08-.5-.3-.13-.23-.19-.66-.15-1.37v-.27c.04-.63.06-1.08-.13-1.73-.05-.13-.1-.26-.14-.39-.13-.32-.23-.6-.21-.98,0-.18,0-.21-.02-.21h-.15c-.27.02-.52,0-.77-.08-.07-.02-.14-.05-.21-.08.08.19.17.35.23.43.79.97.27,1.2-.57,1.17-.44-.02-1.02-.18-1.25-.24-.64-.18-1.27-.49-1.92-.79-.92-.44-1.87-.89-2.78-.94-.31-.01-.38.02-.38.08,0,.08,0,.21.02.36,0,.02,0,.04.01.14.04.33.06.71-.02,1.04-.11.43-.36.74-.88.74-.06,0-.05-.07-.07-.04-.02.02,0,.14.04.38.02.15.08.6.12,1.1.02.31.04.64.02.94-.01.36-.06.62-.14.79-.08.15-.19.25-.35.27-.15.04-.3,0-.44-.12-.13-.11-.27-.32-.41-.66-.11-.24-.19-.52-.27-.83-.07.13-.13.35-.17.58-.04.27-.05.6,0,.91.04.32.11.63.2.92.19.52.5.92.89.87l.35-.05.07.35c.13.66.29,1.27.48,1.85,0,.02.01.04.02.05.24.68.54,1.27.92,1.78.69.89,1.7,1.45,3.24,1.57,1.62-.13,2.67-.69,3.38-1.58.45-.56.79-1.26,1.05-2.06h0l-.02-.03h.01ZM34.41,11.2c-.33-.37-.85-.43-1.23-.44h-.05c-.55-.1-.68-.36-.63-.73.02-.18.11-.33.19-.5h0c.07-.14.23-.11.17-.14-.05-.02-.18-.05-.35-.08h-.08c-1.29-.27-2.7-.41-4.04-.31-1.31.1-2.55.39-3.53,1.01-.94.6-1.64,1.5-1.89,2.8-.11.52-.13,1.11-.1,1.75.02.26.13,1.25.32,2.23.1.46.21.93.35,1.29,0-.21-.01-.44-.02-.66-.04-.46-.08-.88-.11-1.02-.07-.44-.05-.71.08-.91.17-.25.39-.31.7-.3.08,0,.12-.07.14-.17.05-.21.04-.51,0-.79,0,0,0-.06-.01-.13-.02-.17-.04-.33-.02-.48.02-.54.25-.85,1.17-.8,1.06.05,2.07.54,3.06,1.01.62.3,1.22.58,1.8.74.19.06.66.18,1.01.21-.11-.15-.25-.41-.35-.67-.1-.25-.17-.51-.14-.7,0-.08.04-.17.08-.24.05-.06.11-.12.18-.17s.17-.06.27-.06.19.04.3.11c.17.11.33.2.49.25.15.05.31.07.46.06.04,0,0,0,.02,0,.06,0,.13-.01.21,0,.36.02.77.18.74.99,0,.23.06.43.15.68.05.13.11.26.15.44.24.77.21,1.27.17,1.99v.84c.07-.17.13-.39.18-.63.12-.66.19-1.33.25-2.03.05-.56.11-1.13.19-1.64.24-1.58.02-2.39-.35-2.81h.08,0ZM27.25,32.42c.11.06.14.2.08.31s-.2.14-.31.08c-.75-.44-1.27-.44-1.81-.45-.51,0-1.05,0-1.78-.35-.11-.05-.17-.18-.11-.3.05-.11.19-.17.3-.11.64.3,1.13.3,1.6.3.6,0,1.18,0,2.04.51h-.01,0ZM29.03,32.97c-.12.02-.24-.07-.25-.19-.02-.12.07-.24.19-.25.91-.12,1.48-.42,2.05-.71,1.01-.52,2-1.04,4.6-.62.12.02.2.13.19.25-.02.12-.13.2-.25.19-2.45-.39-3.38.08-4.33.57-.6.31-1.22.63-2.19.75h-.01,0ZM25.34,27.66c0-.13.08-.24.2-.24.13,0,.24.08.24.2.06.67.37,1.11.7,1.56.39.55.79,1.1.83,2.04,0,.13-.08.23-.21.24-.13,0-.23-.08-.24-.21-.04-.81-.39-1.31-.75-1.8-.36-.5-.71-1-.79-1.79,0,0,.02,0,.02,0ZM25.24,59.68c.11.06.13.2.07.31s-.2.13-.31.07c-.68-.43-1.19-1-1.54-1.64-.37-.68-.55-1.45-.57-2.28,0-.13.1-.23.21-.23.13,0,.23.1.23.21.01.74.18,1.44.51,2.06.31.58.77,1.08,1.38,1.48h.01v.02h.01ZM32.21,60.15c-.08.08-.24.08-.32,0s-.08-.24,0-.32c.46-.45.85-1,1.12-1.63.25-.58.38-1.24.39-1.93,0-.13.11-.23.23-.23s.23.11.23.23c0,.76-.15,1.48-.43,2.11-.3.69-.71,1.3-1.22,1.79h0s0-.02,0-.02ZM27.93,55.53c-.2-.05-.32-.25-.27-.45s.25-.32.45-.27c.17.04.35.06.51.06.19,0,.38-.02.56-.06.2-.05.41.08.44.29s-.08.41-.29.44c-.23.05-.46.07-.71.07s-.48-.02-.69-.07h0ZM30.36,47.03c-.07-.1-.06-.24.05-.32.1-.07.24-.06.32.05.45.57.62,1.17.79,1.73.17.57.32,1.11.76,1.54.08.08.1.23,0,.32-.08.08-.23.1-.32,0-.52-.51-.7-1.1-.88-1.73-.15-.52-.32-1.07-.71-1.58h-.01ZM27.61,50.99c.04.12-.02.25-.14.29-.12.04-.25-.02-.29-.14-.21-.64-.14-1.14-.06-1.64.06-.41.12-.8,0-1.24-.04-.12.04-.24.15-.27s.24.04.27.15c.14.54.08.98.01,1.42-.07.45-.13.89.05,1.43h.01ZM24.13,48.13c-.04.12-.15.19-.27.15s-.19-.15-.15-.27c.07-.26.19-.49.32-.7.13-.2.3-.39.48-.57.08-.08.23-.08.32,0,.08.08.08.23,0,.32-.15.15-.3.32-.42.5-.11.17-.2.36-.26.57,0,0-.02,0-.02,0ZM26.95,42.9c-.11.06-.25,0-.3-.11-.06-.11,0-.25.11-.3.15-.08.33-.26.48-.51.14-.24.25-.52.29-.81.02-.12.13-.21.25-.19s.21.13.19.25c-.05.36-.18.7-.35.98-.19.32-.44.57-.67.69h0ZM28.13,37.87c.02-.12.13-.2.25-.19s.2.13.19.25c-.14.89-.12,1.94.2,2.8.25.67.69,1.23,1.38,1.49.12.05.17.17.13.29-.05.12-.18.17-.29.13-.81-.32-1.33-.97-1.63-1.75-.36-.94-.39-2.06-.23-3.03h-.01.01ZM33.79,97.19c.12.02.2.13.18.26-.02.12-.13.2-.26.18-.41-.07-.88-.33-1.25-.74-.31-.35-.55-.8-.62-1.33-.02-.12.07-.24.19-.25.12-.02.24.07.25.19.06.43.25.81.51,1.08.3.33.67.55.99.6h0ZM35.88,121.33c.05.19.02.07,0,0ZM35.15,121.52c.02.07.05.15,0,0ZM23.58,97.63c-.12.02-.24-.06-.26-.18s.06-.24.18-.26c.32-.06.69-.26.99-.6.25-.29.45-.66.51-1.08.02-.12.13-.21.25-.19s.21.13.19.25c-.07.54-.31.98-.62,1.33-.37.41-.83.68-1.25.74h.01Z"/>
  <path class="st1" d="M95.36,67.75c-.15-1.32-.32-2.65-.3-4.03,0-1.14.1-2.3.18-3.44.23-3.23.45-6.34-.87-9.39-.3-.62-.45-1.48-.54-2.54-.1-1.1-.11-2.38-.13-3.84,0-1.08-.04-2.18-.14-3.23-.11-1.04-.3-2.01-.63-2.88.2-1.11.13-2.18-.21-3.15-.49-1.39-1.53-2.55-3.07-3.24-.1-.05-.19-.08-.29-.12-.44-.18-1-.46-1.57-.79-.76-.43-1.51-.91-2-1.23l-.06-.05c-.52-.38-1.11-.71-1.74-1.02-.24-.12-.32-.17-.41-.2-1.08-.52-2.14-1.04-2.23-2.14v-.04l.06.06h.05c-.02-.15-.02-.29-.02-.43-.02-.92.18-1.86.43-2.84.14-.43.26-.89.37-1.37.36-.05.63-.24.87-.51.27-.32.46-.73.64-1.17.21-.52.31-1,.33-1.41.02-.45-.06-.82-.2-1.11-.15-.31-.39-.54-.68-.66.05-.41.1-.82.13-1.23.05-.54.1-1.07.18-1.61.29-1.86-.02-2.86-.52-3.42l-1.73-1.97c-.15-.07-.33-.11-.55-.17h-.08c-1.33-.27-2.82-.41-4.23-.31-1.43.11-2.79.44-3.87,1.13-1.11.7-1.93,1.76-2.23,3.29-.11.58-.15,1.23-.11,1.95.02.27.14,1.31.35,2.34-.39.19-.63.68-.71,1.3-.04.33-.04.7,0,1.08s.11.75.24,1.1c.26.71.7,1.27,1.35,1.36.12.57.27,1.12.44,1.63.2,1.16.35,2.19.31,3.12v.04c-.11,1.17-1.49,1.81-2.9,2.47-.57.26-1.13.55-1.66.88-.02.02-.06.04-.08.06-.24.14-.5.27-.77.42-.52.27-1.05.51-1.43.7l-.08.04c-1.94.93-3.87,1.86-4.68,3.92-.3.76-.43,1.61-.38,2.49,0,.29.05.56.1.83-.33.87-.52,1.86-.63,2.88-.1,1.05-.13,2.14-.14,3.23-.02,1.45-.04,2.73-.13,3.84-.1,1.06-.25,1.92-.54,2.55-1.33,3.05-1.1,6.43-.86,9.84.14,2.11.3,4.23.06,6.23-.06.42-.1.76-.14,1.11-.17,1.23-.32,2.47-.31,3.74,0,.74.04,1.48.1,2.14.06.69.14,1.33.25,1.89.12.64.54,1.31,1.06,1.92.71.82,1.64,1.57,2.32,2.07.49.37.94.36,1.3.17.15-.08.29-.21.39-.36s.18-.3.23-.46c.13-.46.05-1-.31-1.29-1.62-1.3-1.91-1.81-1.73-3.15.17.42.3.87.38,1.25.05.49.33.81.68.94.14.05.3.07.45.07.15-.01.3-.05.44-.12.33-.18.57-.51.57-1.01v-.06c0-.31-.02-1.42-.35-2.74-.13-.54-.2-.95-.26-1.33s-.11-.73-.21-1.13c-.17-.63-.44-1-.68-1.32-.07-.1-.13-.19-.18-.25-.76-1.18.43-4.68,1.11-6.66.1-.26.18-.51.23-.67.3-.93.68-2.32.87-4.02.19-1.68.2-3.68-.21-5.83,0-.05-.02-.08-.05-.12.07-.12.14-.24.21-.37.71-1.22,1.56-2.65,2.05-4.27.31.94.56,1.86.7,2.9.2,1.42.2,3.06-.12,5.24-.15,1-.27,1.93-.35,2.84-.08.89-.11,1.78-.08,2.66.04,1.35-.27,2.66-.63,4.17-.05.21-.11.43-.18.75-1.64,7.17-.24,13.58,1.02,19.35l.07.35c.33,1.51.6,2.91.74,4.3s.17,2.79.02,4.33c-.04.46-.1,1.01-.15,1.57-.21,2.06-.43,4.17-.35,5.27.11,2.9.88,5.52,1.67,8.15.63,2.12,1.26,4.25,1.54,6.53.1.8.12,1.39.1,1.87-.02.46-.11.81-.23,1.14-.26.75-.35,1.3-.41,1.81-.04.32-.08.61-.17.92v.02c-.11.41-.49,1.79-1.07,2.54-.32.42-.46.85-.46,1.23,0,.24.06.48.17.68s.25.38.44.52c.33.26.77.41,1.27.41h4.29c1.12,0,1.69-.38,1.93-1.02.21-.57.12-1.31-.06-2.14-.06-.26-.08-.55-.12-.82,0-.08-.02-.18-.05-.35-.05-.36-.1-.7-.1-1.04s0-.62.06-.88c.11-.56.13-1.05.1-1.49-.04-.43-.12-.81-.2-1.17-.11-.44-.18-.77-.23-1.12s-.07-.69-.1-1.14c-.02-.51-.04-1.08-.02-1.7s.05-1.3.11-2.06c0-.11.04-.33.08-.66.27-1.86,1-6.71.13-11.34-.02-.19-.07-.36-.13-.57-.23-.88-.62-2.35-.37-5.34v-.08c.05-.6.23-2.79.27-5.9,0-1.91.19-3.84.36-5.76l.02-.32c.08-.85.33-1.85.6-2.85.08-.32.15-.64.24-.97.08.41.18.82.29,1.25.15.64.31,1.3.43,1.94.21,1.12.35,2.26.43,3.4s.12,2.24.13,3.29c.05,3.11.23,5.29.29,5.9v.08c.25,2.99-.14,4.46-.38,5.34-.05.21-.1.39-.13.57-.86,4.64-.14,9.48.13,11.34.04.31.08.55.08.66.06.76.1,1.44.11,2.06,0,.62,0,1.19-.02,1.7-.02.45-.05.8-.1,1.14-.05.33-.12.68-.23,1.12-.1.35-.17.73-.2,1.17s0,.93.1,1.49c.06.26.06.56.06.88s-.05.68-.1,1.04c-.02.17-.05.25-.05.35-.04.29-.06.57-.12.82-.18.83-.27,1.57-.06,2.14.24.63.8,1.02,1.93,1.02h4.33c.62,0,1.12-.21,1.45-.55.17-.15.29-.33.37-.54s.13-.42.13-.63c0-.44-.18-.91-.55-1.27-.63-.64-.98-1.92-1.1-2.36l-.02-.06c-.08-.31-.12-.61-.17-.92-.07-.51-.14-1.07-.41-1.81-.12-.33-.2-.69-.23-1.14-.02-.48,0-1.06.1-1.87.13-1.13.35-2.22.62-3.28v-.05c.27-1.08.58-2.16.91-3.22.79-2.62,1.56-5.24,1.67-8.15.08-1.1-.13-3.21-.35-5.27-.05-.55-.11-1.11-.15-1.57-.04-.39-.06-.77-.08-1.14,0-.14-.02-.3-.02-.45-.04-.94,0-1.85.07-2.75.13-1.39.39-2.79.79-4.27,1.05-3.92,1.64-7.3,1.79-10.57.14-3.26-.15-6.4-.89-9.81-.18-.83-.32-1.67-.43-2.38-.14-.93-.2-1.64-.2-1.87.02-.88,0-1.75-.08-2.66s-.2-1.83-.35-2.84c-.32-2.18-.32-3.82-.12-5.24.14-.97.37-1.83.64-2.7.42,1.64,1.22,2.92,1.91,4.02.13.2.25.41.37.6-.48,4.91.58,8.79,1.55,12.32l.04.13c.29,1.05,1.02,3.78.45,4.65-.05.07-.12.15-.18.25-.25.32-.51.69-.68,1.32-.1.41-.15.75-.21,1.13-.07.39-.13.8-.26,1.33-.33,1.31-.35,2.43-.35,2.74v.06c0,.5.24.85.57,1.01.13.07.29.12.44.12.15.01.31,0,.45-.07.35-.13.63-.45.68-.94.08-.38.21-.82.38-1.25.17,1.32-.11,1.85-1.73,3.15-.36.29-.44.82-.31,1.29.05.17.12.32.23.46s.24.27.39.36c.36.19.8.19,1.3-.17.68-.5,1.61-1.24,2.32-2.07.52-.61.94-1.27,1.06-1.92.11-.56.19-1.22.25-1.89.05-.68.1-1.41.1-2.14,0-1.42-.14-2.74-.3-4.06h0l-.03.03h0Z"/>
</svg>